<svg width="135" height="135" viewBox="0 0 135 135" fill="none" xmlns="http://www.w3.org/2000/svg">

  <style>
    @media (prefers-color-scheme: dark) {
      .logo { fill: white; }
    }
    @media (prefers-color-scheme: light) {
      .logo { fill: black; }
    }
  </style>

  <g class="logo">
    <g id="Vector" filter="url(#filter0_d_45_15)">
<path fill-rule="evenodd" clip-rule="evenodd" d="M67.1 118.9C47.4 118.9 30.2 108.7 20.2 93.4H61.9C63.5 93.4 64.5 92.4 64.5 90.8V86.8H16.5C13.1 79.6 11.2 71.6 11.2 63.1C11.2 32.3 36.2 7.3 67 7.3C86.6 7.3 103.9 17.4 113.8 32.7H72.2C70.6 32.7 69.6 33.7 69.6 35.3V39.3H117.5C120.9 46.5 122.8 54.6 122.8 63.1C122.9 93.9 97.9 118.9 67.1 118.9ZM67.1 0C32.3 0 4 28.2 4 63.1C4 98 32.2 126.2 67.1 126.2C102 126.2 130.2 98 130.2 63.1C130.2 28.2 101.9 0 67.1 0Z" fill="#222222"/>
<path fill-rule="evenodd" clip-rule="evenodd" d="M32.3 75.8C28.5 71.3 27.7 65 27.7 57.5V32.7H20.4V55.9C20.4 63.9 21.3 70.7 25.5 75.6C29.6 80.4 36.4 83 43 83C44.4 83 45.8 82.9 47.2 82.6H46.9C40.8 82.6 36 80.3 32.3 75.8Z" fill="#222222"/>
<path fill-rule="evenodd" clip-rule="evenodd" d="M63.7 32.6H56.4V55.8C56.4 63 56.7 66.6 54.6 70.3C52.5 74.1 47.4 75.3 43.7 75.4C40.6 75.4 37.3 74.7 34.8 72.5C35.2 73.1 35.6 73.7 36 74.2C39 77.9 43.2 79.5 48.2 79.5C54.1 79.5 58.2 76.8 60.8 73.7C64.2 69.5 63.7 65 63.7 57.5V32.6Z" fill="#222222"/>
<path fill-rule="evenodd" clip-rule="evenodd" d="M97.3 43.4C95.9 43.1 94.5 43 93.1 43C86.5 43 79.7 45.6 75.6 50.4C71.5 55.3 70.5 62.1 70.5 70.1V93.3H77.8V68.5C77.8 61 78.6 54.7 82.4 50.2C86.1 45.8 90.9 43.4 97 43.4H97.3Z" fill="#222222"/>
<path fill-rule="evenodd" clip-rule="evenodd" d="M110.9 52.3C108.4 49.2 104.3 46.5 98.3 46.5C93.4 46.5 89.2 48.2 86.1 51.8C85.7 52.3 85.2 52.9 84.9 53.5C87.4 51.3 90.7 50.6 93.8 50.6C97.5 50.6 102.6 51.9 104.7 55.7C106.8 59.5 106.5 63 106.5 70.2V93.4H113.8V68.5C113.8 61 114.3 56.5 110.9 52.3Z" fill="#222222"/>
</g>
<defs>
<filter id="filter0_d_45_15" x="0" y="0" width="134.2" height="134.2" filterUnits="userSpaceOnUse" color-interpolation-filters="sRGB">
<feFlood flood-opacity="0" result="BackgroundImageFix"/>
<feColorMatrix in="SourceAlpha" type="matrix" values="0 0 0 0 0 0 0 0 0 0 0 0 0 0 0 0 0 0 127 0" result="hardAlpha"/>
<feOffset dy="4"/>
<feGaussianBlur stdDeviation="2"/>
<feComposite in2="hardAlpha" operator="out"/>
<feColorMatrix type="matrix" values="0 0 0 0 0 0 0 0 0 0 0 0 0 0 0 0 0 0 0.25 0"/>
<feBlend mode="normal" in2="BackgroundImageFix" result="effect1_dropShadow_45_15"/>
<feBlend mode="normal" in="SourceGraphic" in2="effect1_dropShadow_45_15" result="shape"/>
</filter>
</defs>
<
  </g>
</svg>